<?xml version="1.0" encoding="UTF-8" standalone="no"?>
<!DOCTYPE svg PUBLIC "-//W3C//DTD SVG 1.1//EN"
 "http://www.w3.org/Graphics/SVG/1.1/DTD/svg11.dtd">
<!-- Generated by graphviz version 2.26.3 (20100126.1600)
 -->
<!-- Title: G Pages: 1 -->
<svg width="1334pt" height="1362pt"
 viewBox="0.00 0.00 1334.00 1362.00" xmlns="http://www.w3.org/2000/svg" xmlns:xlink="http://www.w3.org/1999/xlink">
<g id="graph1" class="graph" transform="scale(1 1) rotate(0) translate(4 1358)">
<title>G</title>
<polygon fill="white" stroke="white" points="-4,5 -4,-1358 1331,-1358 1331,5 -4,5"/>
<g id="graph2" class="cluster"><title>cluster_Global</title>
<polyline fill="none" stroke="gray" points="779,-206 1306,-206 "/>
<path fill="none" stroke="gray" d="M1306,-206C1312,-206 1318,-212 1318,-218"/>
<polyline fill="none" stroke="gray" points="1318,-218 1318,-1334 "/>
<path fill="none" stroke="gray" d="M1318,-1334C1318,-1340 1312,-1346 1306,-1346"/>
<polyline fill="none" stroke="gray" points="1306,-1346 779,-1346 "/>
<path fill="none" stroke="gray" d="M779,-1346C773,-1346 767,-1340 767,-1334"/>
<polyline fill="none" stroke="gray" points="767,-1334 767,-218 "/>
<path fill="none" stroke="gray" d="M767,-218C767,-212 773,-206 779,-206"/>
<text text-anchor="middle" x="1042.5" y="-1332.1" font-family="Times Roman,serif" font-size="11.00" fill="gray">\</text>
</g>
<g id="graph3" class="cluster"><title>cluster_\DTUXBase</title>
<polyline fill="none" stroke="gray" points="787,-214 1298,-214 "/>
<path fill="none" stroke="gray" d="M1298,-214C1304,-214 1310,-220 1310,-226"/>
<polyline fill="none" stroke="gray" points="1310,-226 1310,-1304 "/>
<path fill="none" stroke="gray" d="M1310,-1304C1310,-1310 1304,-1316 1298,-1316"/>
<polyline fill="none" stroke="gray" points="1298,-1316 787,-1316 "/>
<path fill="none" stroke="gray" d="M787,-1316C781,-1316 775,-1310 775,-1304"/>
<polyline fill="none" stroke="gray" points="775,-1304 775,-226 "/>
<path fill="none" stroke="gray" d="M775,-226C775,-220 781,-214 787,-214"/>
<text text-anchor="middle" x="1042.5" y="-1302.1" font-family="Times Roman,serif" font-size="11.00" fill="gray">DTUXBase</text>
</g>
<g id="graph4" class="cluster"><title>cluster_\DTUXBase\View</title>
<polyline fill="none" stroke="gray" points="1179,-958 1287,-958 "/>
<path fill="none" stroke="gray" d="M1287,-958C1293,-958 1299,-964 1299,-970"/>
<polyline fill="none" stroke="gray" points="1299,-970 1299,-1274 "/>
<path fill="none" stroke="gray" d="M1299,-1274C1299,-1280 1293,-1286 1287,-1286"/>
<polyline fill="none" stroke="gray" points="1287,-1286 1179,-1286 "/>
<path fill="none" stroke="gray" d="M1179,-1286C1173,-1286 1167,-1280 1167,-1274"/>
<polyline fill="none" stroke="gray" points="1167,-1274 1167,-970 "/>
<path fill="none" stroke="gray" d="M1167,-970C1167,-964 1173,-958 1179,-958"/>
<text text-anchor="middle" x="1233" y="-1272.1" font-family="Times Roman,serif" font-size="11.00" fill="gray">View</text>
</g>
<g id="graph5" class="cluster"><title>cluster_\DTUXBase\View\Helper</title>
<polyline fill="none" stroke="gray" points="1187,-966 1279,-966 "/>
<path fill="none" stroke="gray" d="M1279,-966C1285,-966 1291,-972 1291,-978"/>
<polyline fill="none" stroke="gray" points="1291,-978 1291,-1244 "/>
<path fill="none" stroke="gray" d="M1291,-1244C1291,-1250 1285,-1256 1279,-1256"/>
<polyline fill="none" stroke="gray" points="1279,-1256 1187,-1256 "/>
<path fill="none" stroke="gray" d="M1187,-1256C1181,-1256 1175,-1250 1175,-1244"/>
<polyline fill="none" stroke="gray" points="1175,-1244 1175,-978 "/>
<path fill="none" stroke="gray" d="M1175,-978C1175,-972 1181,-966 1187,-966"/>
<text text-anchor="middle" x="1233" y="-1242.1" font-family="Times Roman,serif" font-size="11.00" fill="gray">Helper</text>
</g>
<g id="graph6" class="cluster"><title>cluster_\DTUXBase\Auth</title>
<polyline fill="none" stroke="gray" points="1207,-876 1259,-876 "/>
<path fill="none" stroke="gray" d="M1259,-876C1265,-876 1271,-882 1271,-888"/>
<polyline fill="none" stroke="gray" points="1271,-888 1271,-938 "/>
<path fill="none" stroke="gray" d="M1271,-938C1271,-944 1265,-950 1259,-950"/>
<polyline fill="none" stroke="gray" points="1259,-950 1207,-950 "/>
<path fill="none" stroke="gray" d="M1207,-950C1201,-950 1195,-944 1195,-938"/>
<polyline fill="none" stroke="gray" points="1195,-938 1195,-888 "/>
<path fill="none" stroke="gray" d="M1195,-888C1195,-882 1201,-876 1207,-876"/>
<text text-anchor="middle" x="1233" y="-936.1" font-family="Times Roman,serif" font-size="11.00" fill="gray">Auth</text>
</g>
<g id="graph7" class="cluster"><title>cluster_\DTUXBase\Util</title>
<polyline fill="none" stroke="gray" points="1200,-686 1266,-686 "/>
<path fill="none" stroke="gray" d="M1266,-686C1272,-686 1278,-692 1278,-698"/>
<polyline fill="none" stroke="gray" points="1278,-698 1278,-856 "/>
<path fill="none" stroke="gray" d="M1278,-856C1278,-862 1272,-868 1266,-868"/>
<polyline fill="none" stroke="gray" points="1266,-868 1200,-868 "/>
<path fill="none" stroke="gray" d="M1200,-868C1194,-868 1188,-862 1188,-856"/>
<polyline fill="none" stroke="gray" points="1188,-856 1188,-698 "/>
<path fill="none" stroke="gray" d="M1188,-698C1188,-692 1194,-686 1200,-686"/>
<text text-anchor="middle" x="1233" y="-854.1" font-family="Times Roman,serif" font-size="11.00" fill="gray">Util</text>
</g>
<g id="graph8" class="cluster"><title>cluster_\DTUXBase\Document</title>
<polyline fill="none" stroke="gray" points="1176,-550 1290,-550 "/>
<path fill="none" stroke="gray" d="M1290,-550C1296,-550 1302,-556 1302,-562"/>
<polyline fill="none" stroke="gray" points="1302,-562 1302,-666 "/>
<path fill="none" stroke="gray" d="M1302,-666C1302,-672 1296,-678 1290,-678"/>
<polyline fill="none" stroke="gray" points="1290,-678 1176,-678 "/>
<path fill="none" stroke="gray" d="M1176,-678C1170,-678 1164,-672 1164,-666"/>
<polyline fill="none" stroke="gray" points="1164,-666 1164,-562 "/>
<path fill="none" stroke="gray" d="M1164,-562C1164,-556 1170,-550 1176,-550"/>
<text text-anchor="middle" x="1233" y="-664.1" font-family="Times Roman,serif" font-size="11.00" fill="gray">Document</text>
</g>
<g id="graph9" class="cluster"><title>cluster_\DTUXBase\Mail</title>
<polyline fill="none" stroke="gray" points="1210,-468 1256,-468 "/>
<path fill="none" stroke="gray" d="M1256,-468C1262,-468 1268,-474 1268,-480"/>
<polyline fill="none" stroke="gray" points="1268,-480 1268,-530 "/>
<path fill="none" stroke="gray" d="M1268,-530C1268,-536 1262,-542 1256,-542"/>
<polyline fill="none" stroke="gray" points="1256,-542 1210,-542 "/>
<path fill="none" stroke="gray" d="M1210,-542C1204,-542 1198,-536 1198,-530"/>
<polyline fill="none" stroke="gray" points="1198,-530 1198,-480 "/>
<path fill="none" stroke="gray" d="M1198,-480C1198,-474 1204,-468 1210,-468"/>
<text text-anchor="middle" x="1233" y="-528.1" font-family="Times Roman,serif" font-size="11.00" fill="gray">Mail</text>
</g>
<g id="graph10" class="cluster"><title>cluster_\DTUXBase\Controller</title>
<polyline fill="none" stroke="gray" points="1179,-304 1287,-304 "/>
<path fill="none" stroke="gray" d="M1287,-304C1293,-304 1299,-310 1299,-316"/>
<polyline fill="none" stroke="gray" points="1299,-316 1299,-366 "/>
<path fill="none" stroke="gray" d="M1299,-366C1299,-372 1293,-378 1287,-378"/>
<polyline fill="none" stroke="gray" points="1287,-378 1179,-378 "/>
<path fill="none" stroke="gray" d="M1179,-378C1173,-378 1167,-372 1167,-366"/>
<polyline fill="none" stroke="gray" points="1167,-366 1167,-316 "/>
<path fill="none" stroke="gray" d="M1167,-316C1167,-310 1173,-304 1179,-304"/>
<text text-anchor="middle" x="1233" y="-364.1" font-family="Times Roman,serif" font-size="11.00" fill="gray">Controller</text>
</g>
<g id="graph11" class="cluster"><title>cluster_\DTUXBase\Service</title>
<polyline fill="none" stroke="gray" points="795,-386 1281,-386 "/>
<path fill="none" stroke="gray" d="M1281,-386C1287,-386 1293,-392 1293,-398"/>
<polyline fill="none" stroke="gray" points="1293,-398 1293,-448 "/>
<path fill="none" stroke="gray" d="M1293,-448C1293,-454 1287,-460 1281,-460"/>
<polyline fill="none" stroke="gray" points="1281,-460 795,-460 "/>
<path fill="none" stroke="gray" d="M795,-460C789,-460 783,-454 783,-448"/>
<polyline fill="none" stroke="gray" points="783,-448 783,-398 "/>
<path fill="none" stroke="gray" d="M783,-398C783,-392 789,-386 795,-386"/>
<text text-anchor="middle" x="1038" y="-446.1" font-family="Times Roman,serif" font-size="11.00" fill="gray">Service</text>
</g>
<g id="graph12" class="cluster"><title>cluster_\DTUXBase\Entity</title>
<polyline fill="none" stroke="gray" points="1189,-222 1277,-222 "/>
<path fill="none" stroke="gray" d="M1277,-222C1283,-222 1289,-228 1289,-234"/>
<polyline fill="none" stroke="gray" points="1289,-234 1289,-284 "/>
<path fill="none" stroke="gray" d="M1289,-284C1289,-290 1283,-296 1277,-296"/>
<polyline fill="none" stroke="gray" points="1277,-296 1189,-296 "/>
<path fill="none" stroke="gray" d="M1189,-296C1183,-296 1177,-290 1177,-284"/>
<polyline fill="none" stroke="gray" points="1177,-284 1177,-234 "/>
<path fill="none" stroke="gray" d="M1177,-234C1177,-228 1183,-222 1189,-222"/>
<text text-anchor="middle" x="1233" y="-282.1" font-family="Times Roman,serif" font-size="11.00" fill="gray">Entity</text>
</g>
<!-- \\DTUXBase\\View\\Helper\\FlashMessages -->
<g id="node5" class="node"><title>\\DTUXBase\\View\\Helper\\FlashMessages</title>
<polygon fill="none" stroke="black" points="1283,-1226 1183,-1226 1183,-1190 1283,-1190 1283,-1226"/>
<text text-anchor="middle" x="1233" y="-1205.1" font-family="Times Roman,serif" font-size="11.00">FlashMessages</text>
</g>
<!-- \\Zend\\View\\Helper\\AbstractHelper -->
<g id="node29" class="node"><title>\\Zend\\View\\Helper\\AbstractHelper</title>
<ellipse fill="none" stroke="black" cx="857" cy="-180" rx="178.191" ry="18.3848"/>
<text text-anchor="middle" x="857" y="-176.4" font-family="Times Roman,serif" font-size="14.00" fill="gray">\Zend\View\Helper\AbstractHelper</text>
</g>
<!-- \\DTUXBase\\View\\Helper\\FlashMessages&#45;&gt;\\Zend\\View\\Helper\\AbstractHelper -->
<g id="edge13" class="edge"><title>\\DTUXBase\\View\\Helper\\FlashMessages&#45;&gt;\\Zend\\View\\Helper\\AbstractHelper</title>
<path fill="none" stroke="black" d="M1182.72,-1196.19C1175.47,-1192.44 1168.83,-1187.51 1164,-1181 1057.79,-1038.01 1182.03,-540.11 1100,-382 1055.87,-296.949 958.849,-233.926 901.646,-202.462"/>
<polygon fill="none" stroke="black" points="903.281,-199.368 892.821,-197.685 899.949,-205.524 903.281,-199.368"/>
</g>
<!-- \\DTUXBase\\View\\Helper\\Router -->
<g id="node6" class="node"><title>\\DTUXBase\\View\\Helper\\Router</title>
<polygon fill="none" stroke="black" points="1260,-1172 1206,-1172 1206,-1136 1260,-1136 1260,-1172"/>
<text text-anchor="middle" x="1233" y="-1151.1" font-family="Times Roman,serif" font-size="11.00">Router</text>
</g>
<!-- \\DTUXBase\\View\\Helper\\Router&#45;&gt;\\Zend\\View\\Helper\\AbstractHelper -->
<g id="edge15" class="edge"><title>\\DTUXBase\\View\\Helper\\Router&#45;&gt;\\Zend\\View\\Helper\\AbstractHelper</title>
<path fill="none" stroke="black" d="M1205.89,-1150.39C1191.11,-1146.94 1173.86,-1140.19 1164,-1127 1064.53,-993.894 1176.95,-529.274 1100,-382 1055.63,-297.077 958.693,-234.007 901.571,-202.501"/>
<polygon fill="none" stroke="black" points="903.218,-199.412 892.76,-197.717 899.878,-205.564 903.218,-199.412"/>
</g>
<!-- \\DTUXBase\\View\\Helper\\ElementToRow -->
<g id="node7" class="node"><title>\\DTUXBase\\View\\Helper\\ElementToRow</title>
<polygon fill="none" stroke="black" points="1281,-1010 1185,-1010 1185,-974 1281,-974 1281,-1010"/>
<text text-anchor="middle" x="1233" y="-989.1" font-family="Times Roman,serif" font-size="11.00">ElementToRow</text>
</g>
<!-- \\Zend\\Form\\View\\Helper\\AbstractHelper -->
<g id="node40" class="node"><title>\\Zend\\Form\\View\\Helper\\AbstractHelper</title>
<ellipse fill="none" stroke="black" cx="857" cy="-126" rx="205.768" ry="18.3848"/>
<text text-anchor="middle" x="857" y="-122.4" font-family="Times Roman,serif" font-size="14.00" fill="gray">\Zend\Form\View\Helper\AbstractHelper</text>
</g>
<!-- \\DTUXBase\\View\\Helper\\ElementToRow&#45;&gt;\\Zend\\Form\\View\\Helper\\AbstractHelper -->
<g id="edge27" class="edge"><title>\\DTUXBase\\View\\Helper\\ElementToRow&#45;&gt;\\Zend\\Form\\View\\Helper\\AbstractHelper</title>
<path fill="none" stroke="black" d="M1185.23,-973.925C1176.92,-968.711 1169.27,-962.156 1164,-954 1067.1,-804.008 1224.3,-281.203 1100,-153 1065.38,-117.293 1011.55,-108.616 963.343,-109.705"/>
<polygon fill="none" stroke="black" points="963.016,-106.214 953.151,-110.079 963.273,-113.21 963.016,-106.214"/>
</g>
<!-- \\DTUXBase\\View\\Helper\\UserIdentity -->
<g id="node8" class="node"><title>\\DTUXBase\\View\\Helper\\UserIdentity</title>
<polygon fill="none" stroke="black" points="1274,-1118 1192,-1118 1192,-1082 1274,-1082 1274,-1118"/>
<text text-anchor="middle" x="1233" y="-1097.1" font-family="Times Roman,serif" font-size="11.00">UserIdentity</text>
</g>
<!-- \\DTUXBase\\View\\Helper\\UserIdentity&#45;&gt;\\Zend\\View\\Helper\\AbstractHelper -->
<g id="edge29" class="edge"><title>\\DTUXBase\\View\\Helper\\UserIdentity&#45;&gt;\\Zend\\View\\Helper\\AbstractHelper</title>
<path fill="none" stroke="black" d="M1191.65,-1092.06C1181.09,-1088.06 1170.81,-1082.05 1164,-1073 1071.28,-949.776 1171.87,-518.441 1100,-382 1055.35,-297.225 958.514,-234.101 901.486,-202.546"/>
<polygon fill="none" stroke="black" points="903.145,-199.464 892.689,-197.754 899.796,-205.611 903.145,-199.464"/>
</g>
<!-- \\DTUXBase\\View\\Helper\\FirewallLink -->
<g id="node9" class="node"><title>\\DTUXBase\\View\\Helper\\FirewallLink</title>
<polygon fill="none" stroke="black" points="1272,-1064 1194,-1064 1194,-1028 1272,-1028 1272,-1064"/>
<text text-anchor="middle" x="1233" y="-1043.1" font-family="Times Roman,serif" font-size="11.00">FirewallLink</text>
</g>
<!-- \\DTUXBase\\View\\Helper\\FirewallLink&#45;&gt;\\Zend\\View\\Helper\\AbstractHelper -->
<g id="edge31" class="edge"><title>\\DTUXBase\\View\\Helper\\FirewallLink&#45;&gt;\\Zend\\View\\Helper\\AbstractHelper</title>
<path fill="none" stroke="black" d="M1193.86,-1038.82C1182.55,-1034.83 1171.31,-1028.63 1164,-1019 1078.02,-905.654 1166.79,-507.615 1100,-382 1055.02,-297.399 958.304,-234.212 901.386,-202.599"/>
<polygon fill="none" stroke="black" points="903.06,-199.525 892.607,-197.797 899.701,-205.666 903.06,-199.525"/>
</g>
<!-- \\DTUXBase\\Auth\\Adapter -->
<g id="node11" class="node"><title>\\DTUXBase\\Auth\\Adapter</title>
<polygon fill="none" stroke="black" points="1263,-920 1203,-920 1203,-884 1263,-884 1263,-920"/>
<text text-anchor="middle" x="1233" y="-899.1" font-family="Times Roman,serif" font-size="11.00">Adapter</text>
</g>
<!-- \\DTUXBase\\Service\\ServiceLocatorAware -->
<g id="node25" class="node"><title>\\DTUXBase\\Service\\ServiceLocatorAware</title>
<polygon fill="none" stroke="black" points="923,-430 791,-430 791,-394 923,-394 923,-430"/>
<text text-anchor="middle" x="857" y="-409.1" font-family="Times Roman,serif" font-size="11.00">ServiceLocatorAware</text>
</g>
<!-- \\DTUXBase\\Auth\\Adapter&#45;&gt;\\DTUXBase\\Service\\ServiceLocatorAware -->
<g id="edge17" class="edge"><title>\\DTUXBase\\Auth\\Adapter&#45;&gt;\\DTUXBase\\Service\\ServiceLocatorAware</title>
<path fill="none" stroke="black" d="M1202.72,-893.108C1189.84,-888.297 1175.23,-881.382 1164,-872 1009.95,-743.24 902.729,-517.908 868.62,-439.684"/>
<polygon fill="none" stroke="black" points="871.644,-437.856 864.471,-430.059 865.216,-440.628 871.644,-437.856"/>
</g>
<!-- \\Zend\\Authentication\\Adapter\\AdapterInterface -->
<g id="node33" class="node"><title>\\Zend\\Authentication\\Adapter\\AdapterInterface</title>
<ellipse fill="none" stroke="black" cx="857" cy="-72" rx="242.038" ry="18.3848"/>
<text text-anchor="middle" x="857" y="-68.4" font-family="Times Roman,serif" font-size="14.00" fill="gray">\Zend\Authentication\Adapter\AdapterInterface</text>
</g>
<!-- \\DTUXBase\\Auth\\Adapter&#45;&gt;\\Zend\\Authentication\\Adapter\\AdapterInterface -->
<g id="edge19" class="edge"><title>\\DTUXBase\\Auth\\Adapter&#45;&gt;\\Zend\\Authentication\\Adapter\\AdapterInterface</title>
<path fill="none" stroke="black" stroke-dasharray="1,5" d="M1203,-896.384C1188.86,-892.131 1173.13,-884.743 1164,-872 1063.62,-731.88 1220.16,-222.578 1100,-99 1095.08,-93.9394 1089.77,-89.4223 1084.15,-85.3994"/>
<polygon fill="none" stroke="black" points="1085.98,-82.4123 1075.7,-79.8534 1082.14,-88.2653 1085.98,-82.4123"/>
</g>
<!-- \\DTUXBase\\Util\\Filesystem -->
<g id="node13" class="node"><title>\\DTUXBase\\Util\\Filesystem</title>
<polygon fill="none" stroke="black" points="1270,-838 1196,-838 1196,-802 1270,-802 1270,-838"/>
<text text-anchor="middle" x="1233" y="-817.1" font-family="Times Roman,serif" font-size="11.00">Filesystem</text>
</g>
<!-- \\DTUXBase\\Util\\Strings -->
<g id="node14" class="node"><title>\\DTUXBase\\Util\\Strings</title>
<polygon fill="none" stroke="black" points="1260,-784 1206,-784 1206,-748 1260,-748 1260,-784"/>
<text text-anchor="middle" x="1233" y="-763.1" font-family="Times Roman,serif" font-size="11.00">Strings</text>
</g>
<!-- \\DTUXBase\\Util\\Text -->
<g id="node15" class="node"><title>\\DTUXBase\\Util\\Text</title>
<polygon fill="none" stroke="black" points="1260,-730 1206,-730 1206,-694 1260,-694 1260,-730"/>
<text text-anchor="middle" x="1233" y="-709.1" font-family="Times Roman,serif" font-size="11.00">Text</text>
</g>
<!-- \\DTUXBase\\Document\\Coordinates -->
<g id="node17" class="node"><title>\\DTUXBase\\Document\\Coordinates</title>
<polygon fill="none" stroke="black" points="1274,-648 1192,-648 1192,-612 1274,-612 1274,-648"/>
<text text-anchor="middle" x="1233" y="-627.1" font-family="Times Roman,serif" font-size="11.00">Coordinates</text>
</g>
<!-- \\DTUXBase\\Document\\DocumentAbstract -->
<g id="node18" class="node"><title>\\DTUXBase\\Document\\DocumentAbstract</title>
<polygon fill="none" stroke="black" points="1293,-594 1173,-594 1173,-558 1293,-558 1293,-594"/>
<text text-anchor="start" x="1203" y="-581.433" font-family="Times Roman,serif" font-size="11.00">«abstract»</text>
<text text-anchor="start" x="1181" y="-568.233" font-family="Times Roman,serif" font-size="11.00">DocumentAbstract</text>
</g>
<!-- \\DTUXBase\\Mail\\Mail -->
<g id="node20" class="node"><title>\\DTUXBase\\Mail\\Mail</title>
<polygon fill="none" stroke="black" points="1260,-512 1206,-512 1206,-476 1260,-476 1260,-512"/>
<text text-anchor="middle" x="1233" y="-491.1" font-family="Times Roman,serif" font-size="11.00">Mail</text>
</g>
<!-- \\DTUXBase\\Controller\\ControllerAbstract -->
<g id="node22" class="node"><title>\\DTUXBase\\Controller\\ControllerAbstract</title>
<polygon fill="none" stroke="black" points="1291,-348 1175,-348 1175,-312 1291,-312 1291,-348"/>
<text text-anchor="start" x="1203" y="-335.433" font-family="Times Roman,serif" font-size="11.00">«abstract»</text>
<text text-anchor="start" x="1183.5" y="-322.233" font-family="Times Roman,serif" font-size="11.00">ControllerAbstract</text>
</g>
<!-- \\Zend\\Mvc\\Controller\\AbstractActionController -->
<g id="node35" class="node"><title>\\Zend\\Mvc\\Controller\\AbstractActionController</title>
<ellipse fill="none" stroke="black" cx="857" cy="-18" rx="236.881" ry="18.3848"/>
<text text-anchor="middle" x="857" y="-14.4" font-family="Times Roman,serif" font-size="14.00" fill="gray">\Zend\Mvc\Controller\AbstractActionController</text>
</g>
<!-- \\DTUXBase\\Controller\\ControllerAbstract&#45;&gt;\\Zend\\Mvc\\Controller\\AbstractActionController -->
<g id="edge21" class="edge"><title>\\DTUXBase\\Controller\\ControllerAbstract&#45;&gt;\\Zend\\Mvc\\Controller\\AbstractActionController</title>
<path fill="none" stroke="black" d="M1177.73,-311.81C1172.6,-308.488 1167.89,-304.583 1164,-300 1088.43,-210.877 1188.02,-121.852 1100,-45 1093.82,-39.6018 1087.18,-34.865 1080.2,-30.7206"/>
<polygon fill="none" stroke="black" points="1081.63,-27.5123 1071.17,-25.7825 1078.27,-33.6531 1081.63,-27.5123"/>
</g>
<!-- \\DTUXBase\\Service\\AbstractService -->
<g id="node24" class="node"><title>\\DTUXBase\\Service\\AbstractService</title>
<polygon fill="none" stroke="black" points="1285,-430 1181,-430 1181,-394 1285,-394 1285,-430"/>
<text text-anchor="start" x="1203" y="-417.433" font-family="Times Roman,serif" font-size="11.00">«abstract»</text>
<text text-anchor="start" x="1189.5" y="-404.233" font-family="Times Roman,serif" font-size="11.00">AbstractService</text>
</g>
<!-- \\DTUXBase\\Service\\AbstractService&#45;&gt;\\DTUXBase\\Service\\ServiceLocatorAware -->
<g id="edge23" class="edge"><title>\\DTUXBase\\Service\\AbstractService&#45;&gt;\\DTUXBase\\Service\\ServiceLocatorAware</title>
<path fill="none" stroke="black" d="M1180.72,-412C1116.45,-412 1006.86,-412 933.211,-412"/>
<polygon fill="none" stroke="black" points="933.066,-408.5 923.066,-412 933.066,-415.5 933.066,-408.5"/>
</g>
<!-- \\Zend\\ServiceManager\\ServiceLocatorAwareInterface -->
<g id="node38" class="node"><title>\\Zend\\ServiceManager\\ServiceLocatorAwareInterface</title>
<ellipse fill="none" stroke="black" cx="271" cy="-412" rx="270.822" ry="18.3848"/>
<text text-anchor="middle" x="271" y="-408.4" font-family="Times Roman,serif" font-size="14.00" fill="gray">\Zend\ServiceManager\ServiceLocatorAwareInterface</text>
</g>
<!-- \\DTUXBase\\Service\\ServiceLocatorAware&#45;&gt;\\Zend\\ServiceManager\\ServiceLocatorAwareInterface -->
<g id="edge25" class="edge"><title>\\DTUXBase\\Service\\ServiceLocatorAware&#45;&gt;\\Zend\\ServiceManager\\ServiceLocatorAwareInterface</title>
<path fill="none" stroke="black" stroke-dasharray="1,5" d="M790.917,-412C731.917,-412 641.288,-412 552.127,-412"/>
<polygon fill="none" stroke="black" points="552.107,-408.5 542.107,-412 552.107,-415.5 552.107,-408.5"/>
</g>
<!-- \\DTUXBase\\Entity\\EntityAbstract -->
<g id="node27" class="node"><title>\\DTUXBase\\Entity\\EntityAbstract</title>
<polygon fill="none" stroke="black" points="1280,-266 1186,-266 1186,-230 1280,-230 1280,-266"/>
<text text-anchor="start" x="1203" y="-253.433" font-family="Times Roman,serif" font-size="11.00">«abstract»</text>
<text text-anchor="start" x="1194" y="-240.233" font-family="Times Roman,serif" font-size="11.00">EntityAbstract</text>
</g>
</g>
</svg>
